<?xml version="1.0" encoding="utf-8"?>
<!-- Generator: Adobe Illustrator 28.2.0, SVG Export Plug-In . SVG Version: 6.00 Build 0)  -->
<svg version="1.1" id="Слой_1" xmlns="http://www.w3.org/2000/svg" xmlns:xlink="http://www.w3.org/1999/xlink" x="0px" y="0px"
	 viewBox="0 0 595.28 841.89" style="enable-background:new 0 0 595.28 841.89;" xml:space="preserve">
<style type="text/css">
	.st0{fill:#A55679;}
	.st1{fill:#8E4968;}
	.st2{fill:#D77DA5;}
	.st3{fill:#F7C3DC;}
	.st4{fill:#FFFFFF;}
	.st5{fill:#F3A3C7;}
	.st6{fill:#F29AC2;}
	.st7{fill:#CB6894;}
	.st8{fill:#FBE2EF;}
	.st9{fill:#F08AB7;}
</style>
<path class="st0" d="M485.36,366.64c0,3.22-0.09,6.42-0.24,9.61c-0.63,12.75-2.51,25.14-5.55,37.08
	c-7.23,28.69-20.93,54.76-39.53,76.59c-7.79,9.2-16.48,17.65-25.89,25.23c-32.61,26.22-74.08,41.92-119.22,41.92
	c-37.14,0-71.81-10.63-101.1-29.02c-6.3-3.97-12.36-8.27-18.12-12.9c-40.04-32.22-66.79-80.26-70.7-134.63
	c-0.18-2.66-0.33-5.31-0.42-7.97c-0.06-1.97-0.09-3.94-0.09-5.91c0-5.4,0.24-10.75,0.69-16.03c0.3-3.52,0.69-7.02,1.16-10.51
	c0.9-6.36,2.09-12.66,3.61-18.81c0.51-2.21,1.1-4.39,1.7-6.57c0.84-2.93,1.7-5.79,2.69-8.66c1.46-4.39,3.08-8.72,4.87-12.96
	c0.84-2,1.73-4.03,2.63-6c0.6-1.28,1.19-2.57,1.85-3.85c13.23-27.14,32.72-50.64,56.61-68.67c5.55-4.18,11.32-8.09,17.32-11.67
	c5.61-3.31,11.38-6.39,17.32-9.14h0.03c24.3-11.29,51.39-17.56,79.96-17.56c57.36,0,108.77,25.35,143.65,65.42
	c11.7,13.41,21.53,28.48,29.11,44.79c1.61,3.43,3.11,6.96,4.48,10.51c2.87,7.23,5.31,14.69,7.23,22.36
	c0.39,1.34,0.72,2.69,1.02,4.03c1.88,8.03,3.22,16.24,4.03,24.63c0.36,3.61,0.63,7.26,0.75,10.93
	C485.3,361.44,485.36,364.04,485.36,366.64z"/>
<path class="st1" d="M438.57,241.62c-34.87-40.07-86.29-65.42-143.65-65.42c-28.57,0-55.66,6.27-79.96,17.56h-0.03
	c-3.52,3.91-6.75,8.12-9.67,12.54c-2.75-0.75-5.31-1.88-7.64-3.4c-6,3.58-11.76,7.49-17.32,11.67c4.21,4.42,9.29,8.09,14.96,10.81
	c-4.99,12.33-7.7,25.8-7.7,39.86v22.12c0,27.11,10.96,51.77,28.72,69.78c18.06,18.36,43.17,29.77,70.82,29.77h54.55
	c24.21,0,46.52-8.78,63.84-23.29l6.93-6.96l5.46-5.46c14.57-17.32,23.32-39.59,23.32-63.84v-22.12
	C441.2,257.15,440.31,249.24,438.57,241.62z M216.19,272.65c-4.36,2-8.9-2.48-6.75-6.78c6.78-13.2,20.57-22.21,36.46-22.21
	c15.91,0,29.68,9.02,36.46,22.18c2.18,4.3-2.36,8.78-6.72,6.81c-8.63-3.97-18.81-6.24-29.74-6.24
	C234.97,266.41,224.79,268.67,216.19,272.65z M370.29,331.14c-2.78,20.72-26.66,36.9-55.72,36.9c-29.05,0-52.97-16.18-55.71-36.9
	c-0.15-1.31-0.27-2.63-0.27-3.97c0-22.57,25.08-40.88,55.98-40.88c30.9,0,55.95,18.3,55.95,40.88
	C370.53,328.51,370.44,329.82,370.29,331.14z M384.84,263.84c-8.63-3.97,8.98,2.57-1.95,2.57c-10.93,0-21.11,2.27-29.74,6.24
	c-4.33,2-8.9-2.48-6.72-6.78c6.75-13.2,20.54-22.21,36.46-22.21c15.88,0-11.36,5.76-4.55,18.93
	C380.49,266.88,389.2,265.81,384.84,263.84z"/>
<path class="st1" d="M485.18,358.88c-10.18-2.72-17.59-11.08-17.59-20.96c0-7.85,4.72-14.78,11.79-18.63
	c-1.91-7.67-4.36-15.14-7.23-22.36l-54.28,54.28c-1.64,1.97-3.37,3.88-5.2,5.76c-2.3,2.3-4.69,4.54-7.2,6.66
	c-17.32,14.51-39.62,23.29-63.84,23.29h-54.55c-27.65,0-52.76-11.41-70.82-29.77h-0.03l-66.2-62.88c-5.02-5.08-11.2-8.36-17.65-9.94
	c-2.87-0.69-5.79-1.04-8.72-1.07c-9.76-0.06-19.56,3.61-26.96,11.02l-8.54,8.57c-14.69,14.66-14.69,38.67,0,53.33l85.69,85.69
	c4.39,4.42,9.64,7.46,15.2,9.23v73.27c1.55,1.25,3.14,2.48,4.75,3.7c29.29,18.39,63.96,29.02,101.1,29.02
	c45.15,0,86.62-15.71,119.22-41.92c9.41-7.58,18.09-16.03,25.89-25.23v-40.46c4-1.82,7.73-4.33,11.02-7.61l28.51-28.51
	c3.05-11.94,4.93-24.33,5.55-37.08c0.15-3.19,0.24-6.39,0.24-9.61C485.36,364.04,485.3,361.44,485.18,358.88z M129.63,290.65
	c0.15-0.03,0.33-0.03,0.48-0.03c4.81,0,8.72,3.46,8.72,7.73c0,4.27-3.91,7.73-8.72,7.73c-2.15,0-4.06-0.72-5.61-1.79
	c-1.91-1.43-3.14-3.55-3.14-5.94C121.36,294.23,125.01,290.83,129.63,290.65z M91.12,341.71c-4.84,0-8.75-3.46-8.75-7.73
	c0-4.27,3.91-7.76,8.75-7.76c4.81,0,8.72,3.49,8.72,7.76C99.84,338.24,95.92,341.71,91.12,341.71z M93.18,310.09
	c0-4.27,3.94-7.73,8.75-7.73c4.84,0,8.72,3.46,8.72,7.73c0,4.27-3.88,7.76-8.72,7.76C97.12,317.85,93.18,314.36,93.18,310.09z
	 M130.11,355.86c-5.76,0-11.05-1.73-15.26-4.69c-4-2.78-7.05-6.66-8.51-11.08c-0.66-1.94-0.99-4-0.99-6.12
	c0-4.72,1.7-9.11,4.6-12.69c2.9-3.58,6.96-6.36,11.73-7.88c2.6-0.87,5.46-1.31,8.42-1.31c13.65,0,24.69,9.79,24.69,21.89
	C154.8,346.04,143.76,355.86,130.11,355.86z"/>
<path class="st2" d="M472.11,304.18c0,4.06-3.7,7.34-8.3,7.34c-4.6,0-8.3-3.28-8.3-7.34c0-4.09,3.7-7.38,8.3-7.38
	C468.4,296.8,472.11,300.09,472.11,304.18z"/>
<path class="st3" d="M347.87,331.59c-2.63,19.68-25.32,35.05-52.94,35.05c-27.59,0-50.31-15.38-52.94-35.05
	c5.76-1.7,11.76-2.87,17.91-3.4c2.72-0.27,5.46-0.39,8.24-0.39h53.6c2.78,0,5.52,0.12,8.24,0.39
	C336.13,328.72,342.1,329.88,347.87,331.59z"/>
<path class="st3" d="M388.14,356.1c-2.18,2.21-4.45,4.33-6.84,6.33l6.6-6.6C388,355.92,388.06,356.01,388.14,356.1z"/>
<path class="st3" d="M416.03,186.42c0,11.76-8.09,21.68-19.02,24.45c-8.18-11.73-18.75-21.71-30.96-29.17
	c2.18-11.67,12.45-20.51,24.75-20.51C404.75,161.19,416.03,172.47,416.03,186.42z"/>
<path class="st3" d="M223.63,181.58c-13.02,7.94-24.16,18.69-32.55,31.38c-11.2-3.02-19.44-13.26-19.44-25.41
	c0-14.57,11.79-26.36,26.33-26.36C210.46,161.19,220.94,169.87,223.63,181.58z"/>
<path class="st2" d="M416.03,186.42c0,11.76-8.09,21.68-19.02,24.45c-8.18-11.73-18.75-21.71-30.96-29.17
	c2.18-11.67,12.45-20.51,24.75-20.51C404.75,161.19,416.03,172.47,416.03,186.42z"/>
<path class="st2" d="M223.63,181.58c-13.02,7.94-24.16,18.69-32.55,31.38c-11.2-3.02-19.44-13.26-19.44-25.41
	c0-14.57,11.79-26.36,26.33-26.36C210.46,161.19,220.94,169.87,223.63,181.58z"/>
<path class="st3" d="M434.9,187.55c0-24.54-20.84-44.43-46.58-44.43c-19.92,0-36.96,11.94-43.59,28.75
	c-10-3.31-20.63-5.08-31.68-5.08h-36.61c-9.91,0-19.53,1.43-28.6,4.12c-7.52-16.36-24.66-27.8-44.58-27.8
	c-26.87,0-48.67,20.78-48.67,46.43c0,18.18,10.99,33.92,26.96,41.53c-4.72,11.73-7.32,24.51-7.32,37.89v21.02
	c0,25.74,10.42,49.18,27.29,66.28c17.17,17.44,41.02,28.28,67.3,28.28h51.83c23.02,0,44.19-8.33,60.64-22.12l6.6-6.6l5.2-5.2
	c13.82-16.45,22.15-37.62,22.15-60.64v-21.02c0-14.42-3.02-28.16-8.48-40.64C423.32,221.53,434.9,205.82,434.9,187.55z
	 M171.64,187.55c0-14.57,11.79-26.36,26.33-26.36c12.48,0,22.96,8.69,25.65,20.39c-13.02,7.94-24.16,18.69-32.55,31.38
	C179.89,209.94,171.64,199.7,171.64,187.55z M201.44,275.99c-4.12,1.91-8.45-2.36-6.39-6.42c6.42-12.54,19.53-21.11,34.64-21.11
	s28.19,8.57,34.64,21.08c2.06,4.06-2.24,8.33-6.39,6.45c-8.18-3.76-17.86-5.91-28.25-5.91S209.62,272.23,201.44,275.99z
	 M347.87,331.59c-2.63,19.68-25.32,35.05-52.94,35.05c-27.59,0-50.31-15.38-52.94-35.05c-0.15-1.25-0.24-2.51-0.24-3.79
	c0-21.44,23.83-38.85,53.18-38.85c29.38,0,53.18,17.41,53.18,38.85C348.11,329.08,348.02,330.33,347.87,331.59z M388.08,275.99
	c-8.18-3.76-17.86-5.91-28.25-5.91c-10.39,0-20.06,2.15-28.25,5.91c-4.12,1.91-8.45-2.36-6.39-6.42
	c6.42-12.54,19.53-21.11,34.64-21.11c15.11,0,28.19,8.57,34.64,21.08C396.53,273.6,392.24,277.87,388.08,275.99z M397.01,210.87
	c-8.18-11.73-18.75-21.71-30.96-29.17c2.18-11.67,12.45-20.51,24.75-20.51c13.94,0,25.23,11.29,25.23,25.23
	C416.03,198.18,407.94,208.09,397.01,210.87z"/>
<path class="st3" d="M257.93,275.99c-8.18-3.76-17.86-5.91-28.25-5.91s-20.06,2.15-28.25,5.91c-4.12,1.91-8.45-2.36-6.39-6.42
	c6.42-12.54,19.53-21.11,34.64-21.11s28.19,8.57,34.64,21.08C266.38,273.6,262.08,277.87,257.93,275.99z"/>
<path class="st3" d="M348.11,327.79c0,1.28-0.09,2.54-0.24,3.79c-2.63,19.68-25.32,35.05-52.94,35.05
	c-27.59,0-50.31-15.38-52.94-35.05c-0.15-1.25-0.24-2.51-0.24-3.79c0-21.44,23.83-38.85,53.18-38.85
	C324.31,288.95,348.11,306.36,348.11,327.79z"/>
<path class="st3" d="M393.1,350.63c-1.58,1.88-3.22,3.7-4.96,5.46c-2.18,2.21-4.45,4.33-6.84,6.33l6.6-6.6L393.1,350.63z"/>
<path class="st3" d="M388.08,275.99c-8.18-3.76-17.86-5.91-28.25-5.91c-10.39,0-20.06,2.15-28.25,5.91
	c-4.12,1.91-8.45-2.36-6.39-6.42c6.42-12.54,19.53-21.11,34.64-21.11c15.11,0,28.19,8.57,34.64,21.08
	C396.53,273.6,392.24,277.87,388.08,275.99z"/>
<path class="st3" d="M506.02,304.68l-8.15-8.15c-8.18-8.21-19.47-11.58-30.19-10.12c-7.49,1.02-14.72,4.36-20.48,10.12l-54.1,54.1
	c-1.58,1.88-3.22,3.7-4.96,5.46c-2.18,2.21-4.45,4.33-6.84,6.33c-16.45,13.79-37.62,22.12-60.64,22.12h-51.83
	c-26.27,0-50.13-10.84-67.3-28.28c-0.06,0.06-0.09,0.09-0.12,0.12c0.03-0.03,0.06-0.06,0.09-0.12l-62.88-59.75
	c-4.78-4.81-10.63-7.94-16.78-9.44c-11.76-2.87-24.75,0.3-33.89,9.44l-8.12,8.15c-13.94,13.91-13.94,36.73,0,50.67L105,380.52
	l56.25,56.25c4.18,4.18,9.17,7.08,14.45,8.75v69.63c11.26,9.02,23.53,16.81,36.64,23.14c10.18,4.9,20.87,8.93,31.98,11.94
	c0.21,0.09,0.42,0.15,0.66,0.21c15.91,4.3,32.66,6.63,49.95,6.63c12.69,0,25.06-1.32,37.05-3.7c1.92-0.36,3.82-0.73,5.68-1.14
	c0.96-0.21,1.91-0.42,2.84-0.66c10.75-2.63,21.11-6.18,31.02-10.54c15.35-6.72,29.62-15.44,42.52-25.77
	c0.09-0.09,0.12-0.12,0.12-0.12V444c3.79-1.73,7.34-4.12,10.45-7.23l81.42-81.42C519.94,341.41,519.94,318.6,506.02,304.68z
	 M119.21,293.1c0.15-0.03,0.3-0.03,0.45-0.03c4.57,0,8.3,3.28,8.3,7.35c0,4.06-3.73,7.35-8.3,7.35c-2.03,0-3.85-0.66-5.31-1.7
	c-1.82-1.34-2.99-3.37-2.99-5.64C111.36,296.5,114.82,293.28,119.21,293.1z M82.61,341.62c-4.6,0-8.3-3.28-8.3-7.34
	c0-4.06,3.7-7.38,8.3-7.38c4.57,0,8.3,3.31,8.3,7.38C90.91,338.33,87.18,341.62,82.61,341.62z M84.58,311.58
	c0-4.06,3.73-7.35,8.3-7.35c4.6,0,8.3,3.28,8.3,7.35s-3.7,7.38-8.3,7.38C88.31,318.96,84.58,315.64,84.58,311.58z M119.66,355.05
	c-5.46,0-10.48-1.64-14.48-4.45c-5.49-3.79-9.02-9.7-9.02-16.33c0-8.99,6.45-16.66,15.5-19.56c2.48-0.81,5.2-1.25,8-1.25
	c12.96,0,23.47,9.32,23.47,20.81C143.13,345.74,132.62,355.05,119.66,355.05z M463.8,296.8c4.6,0,8.3,3.28,8.3,7.38
	c0,4.06-3.7,7.34-8.3,7.34c-4.6,0-8.3-3.28-8.3-7.34C455.5,300.09,459.21,296.8,463.8,296.8z M484.44,347.95
	c-3.97,6.48-11.73,10.87-20.63,10.87c-12.96,0-23.47-9.32-23.47-20.81c0-11.47,10.51-20.78,23.47-20.78c6.48,0,12.36,2.33,16.6,6.09
	c4.24,3.76,6.87,8.96,6.87,14.69C487.27,341.62,486.26,344.99,484.44,347.95z M482.26,315.34c0-4.06,3.73-7.38,8.33-7.38
	c4.57,0,8.3,3.31,8.3,7.38s-3.73,7.35-8.3,7.35C485.99,322.69,482.26,319.4,482.26,315.34z M500.86,345.38c-4.6,0-8.3-3.31-8.3-7.37
	c0-4.06,3.7-7.35,8.3-7.35c4.6,0,8.3,3.28,8.3,7.35C509.16,342.07,505.46,345.38,500.86,345.38z"/>
<path class="st4" d="M90.91,334.27c0,4.06-3.73,7.34-8.3,7.34c-4.6,0-8.3-3.28-8.3-7.34c0-4.06,3.7-7.38,8.3-7.38
	C87.18,326.9,90.91,330.21,90.91,334.27z"/>
<path class="st4" d="M92.88,318.96c-4.57,0-8.3-3.31-8.3-7.38s3.73-7.35,8.3-7.35c4.6,0,8.3,3.28,8.3,7.35
	S97.48,318.96,92.88,318.96z"/>
<path class="st4" d="M111.36,300.41c0-4.06,3.7-7.35,8.3-7.35c4.57,0,8.3,3.28,8.3,7.35c0,4.06-3.73,7.35-8.3,7.35
	C115.06,307.76,111.36,304.47,111.36,300.41z"/>
<path class="st4" d="M143.13,334.27c0,11.47-10.51,20.78-23.47,20.78c-12.96,0-23.5-9.32-23.5-20.78c0-11.5,10.54-20.81,23.5-20.81
	C132.62,313.46,143.13,322.78,143.13,334.27z"/>
<path class="st2" d="M498.89,315.34c0,4.06-3.73,7.35-8.3,7.35c-4.6,0-8.33-3.28-8.33-7.35s3.73-7.38,8.33-7.38
	C495.16,307.97,498.89,311.28,498.89,315.34z"/>
<path class="st3" d="M387.91,355.83l5.2-5.2c-1.58,1.88-3.22,3.7-4.96,5.46c-2.18,2.21-4.45,4.33-6.84,6.33L387.91,355.83z"/>
<path class="st5" d="M353.3,329.21c0,1.25-0.09,2.47-0.23,3.69c-2.56,19.15-24.67,34.12-51.58,34.12
	c-26.88,0-49.02-14.97-51.58-34.12c-0.15-1.22-0.23-2.44-0.23-3.69c0-20.87,23.21-37.81,51.81-37.81
	C330.12,291.4,353.3,308.34,353.3,329.21z"/>
<path class="st3" d="M487.27,338c0,11.5-10.51,20.81-23.47,20.81c-12.96,0-23.47-9.32-23.47-20.81c0-11.47,10.51-20.78,23.47-20.78
	C476.76,317.22,487.27,326.54,487.27,338z"/>
<path class="st6" d="M348.11,327.79c0,1.28-0.09,2.54-0.24,3.79c-2.63,19.68-25.32,35.05-52.94,35.05
	c-27.59,0-50.31-15.38-52.94-35.05c-0.15-1.25-0.24-2.51-0.24-3.79c0-21.44,23.83-38.85,53.18-38.85
	C324.31,288.95,348.11,306.36,348.11,327.79z"/>
<path class="st2" d="M257.93,275.99c-8.18-3.76-17.86-5.91-28.25-5.91s-20.06,2.15-28.25,5.91c-4.12,1.91-8.45-2.36-6.39-6.42
	c6.42-12.54,19.53-21.11,34.64-21.11s28.19,8.57,34.64,21.08C266.38,273.6,262.08,277.87,257.93,275.99z"/>
<path class="st2" d="M388.08,275.99c-8.18-3.76-17.86-5.91-28.25-5.91c-10.39,0-20.06,2.15-28.25,5.91
	c-4.12,1.91-8.45-2.36-6.39-6.42c6.42-12.54,19.53-21.11,34.64-21.11c15.11,0,28.19,8.57,34.64,21.08
	C396.53,273.6,392.24,277.87,388.08,275.99z"/>
<path class="st5" d="M146.24,336.39c0,11.47-10.51,20.78-23.47,20.78c-6.06,0-11.61-2.03-15.77-5.4c3.64,2.09,8,3.28,12.66,3.28
	c12.96,0,23.47-9.32,23.47-20.78c0-6.12-2.99-11.61-7.7-15.41C141.94,322.57,146.24,329.02,146.24,336.39z"/>
<path class="st5" d="M143.13,334.27c0,11.47-10.51,20.78-23.47,20.78c-4.66,0-9.02-1.19-12.66-3.28c-4.75-3.79-7.73-9.29-7.73-15.38
	c0-11.5,10.54-20.81,23.5-20.81c4.66,0,9.02,1.19,12.66,3.28C140.14,322.66,143.13,328.15,143.13,334.27z"/>
<ellipse class="st2" cx="291.92" cy="305.74" rx="13.2" ry="7.73"/>
<path class="st5" d="M102.34,312.85c0,4.06-3.73,7.34-8.3,7.34c-4.6,0-8.3-3.28-8.3-7.34c0-4.06,3.7-7.38,8.3-7.38
	C98.61,305.48,102.34,308.79,102.34,312.85z"/>
<path class="st2" d="M260.32,329.29c-2.07-4.04,2.23-8.33,6.36-6.43c8.18,3.75,17.86,5.92,28.25,5.92c10.39,0,20.08-2.17,28.26-5.94
	c4.13-1.9,8.44,2.38,6.37,6.43c-6.42,12.54-19.52,21.13-34.63,21.13C279.82,350.39,266.74,341.81,260.32,329.29z"/>
<path class="st2" d="M143.13,334.27c0,11.47-10.51,20.78-23.47,20.78c-4.66,0-9.02-1.19-12.66-3.28
	c-6.51-3.7-10.84-10.15-10.84-17.5c0-11.5,10.54-20.81,23.5-20.81c6.06,0,11.61,2.03,15.76,5.4
	C140.14,322.66,143.13,328.15,143.13,334.27z"/>
<path class="st2" d="M101.18,311.58c0,4.06-3.7,7.38-8.3,7.38c-4.57,0-8.3-3.31-8.3-7.38s3.73-7.35,8.3-7.35
	C97.48,304.24,101.18,307.52,101.18,311.58z"/>
<path class="st5" d="M92.46,334.88c0,4.06-3.73,7.34-8.3,7.34c-4.6,0-8.3-3.28-8.3-7.34c0-4.06,3.7-7.38,8.3-7.38
	C88.72,327.5,92.46,330.82,92.46,334.88z"/>
<path class="st5" d="M128.5,301.82c0,4.06-3.73,7.34-8.3,7.34c-4.6,0-8.3-3.28-8.3-7.34c0-4.06,3.7-7.38,8.3-7.38
	C124.77,294.45,128.5,297.76,128.5,301.82z"/>
<path class="st2" d="M127.96,300.41c0,4.06-3.73,7.35-8.3,7.35c-4.6,0-8.3-3.28-8.3-7.35c0-4.06,3.7-7.35,8.3-7.35
	C124.23,293.07,127.96,296.35,127.96,300.41z"/>
<path class="st2" d="M90.91,334.27c0,4.06-3.73,7.34-8.3,7.34c-4.6,0-8.3-3.28-8.3-7.34c0-4.06,3.7-7.38,8.3-7.38
	C87.18,326.9,90.91,330.21,90.91,334.27z"/>
<path class="st2" d="M487.27,338c0,11.5-10.51,20.81-23.47,20.81c-12.96,0-23.47-9.32-23.47-20.81c0-11.47,10.51-20.78,23.47-20.78
	C476.76,317.22,487.27,326.54,487.27,338z"/>
<path class="st2" d="M509.16,338c0,4.06-3.7,7.37-8.3,7.37c-4.6,0-8.3-3.31-8.3-7.37c0-4.06,3.7-7.35,8.3-7.35
	C505.46,330.66,509.16,333.94,509.16,338z"/>
<path class="st5" d="M201.53,356.28l1,1.45c0,0,0.54,0.75,1.57,2.04c16.47,20.69,41.86,37.61,68.3,38.1
	c14.58,0.27,31.72,0.32,43.84,0.28c14.24-0.04,27.02-8.24,39.63-14.84c12.62-6.6,26.82-16.13,32.03-27.48
	c-7.28,7.16-7.73,6.6-7.73,6.6s-7.05,8.15-38.84,17.15c-7.27,2.06-14.8,3.24-22.36,3.4C278.45,383.86,256.99,388.85,201.53,356.28z"
	/>
<path class="st7" d="M245.51,251.8c0,0,21.94,18.82-20.77,18.44c9.92,0,9.44-0.03,9.44-0.03l1.91,0.14c0,0,6.58,0.65,7.59,1.07
	c1.18,0.24,7.06,1.8,7.06,1.8s6.43,2.22,6.72,2.55c0.52,0.22,2.1,1.08,4.1,0.41c0.93-0.44,2.25-0.93,3.04-3
	c0.18-0.65,0.36-1.66,0.17-2.36c-0.19-0.7-0.64-1.67-0.85-2.04c-0.35-0.62-3.62-5.92-4-5.96
	C259.27,262.09,252.53,254.46,245.51,251.8z"/>
<path class="st7" d="M375.67,251.79c0,0,23.08,18.73-19.63,18.35c9.92,0,8.29,0.06,8.29,0.06l1.91,0.14c0,0,6.58,0.65,7.59,1.07
	c1.18,0.24,7.06,1.8,7.06,1.8s6.43,2.22,6.72,2.55c0.52,0.22,2.1,1.08,4.1,0.41c0.93-0.44,2.25-0.93,3.04-3
	c0.18-0.65,0.36-1.66,0.17-2.36c-0.19-0.7-0.64-1.67-0.85-2.04c-0.35-0.62-3.62-5.92-4-5.96
	C389.43,262.08,382.68,254.45,375.67,251.79z"/>
<ellipse transform="matrix(0.784 -0.6208 0.6208 0.784 -117.3447 184.4007)" class="st8" cx="206.31" cy="260.82" rx="6.88" ry="1.6"/>
<ellipse transform="matrix(0.784 -0.6208 0.6208 0.784 -90.7359 264.1502)" class="st8" cx="334.21" cy="262.46" rx="6.88" ry="1.6"/>
<path class="st8" d="M273.16,183.74c1.86,2.61-23.93,5.69-48.63,23.31s-36.29,41.87-38.16,39.26c-1.86-2.61,6.7-31.1,31.41-48.72
	S271.3,181.12,273.16,183.74z"/>
<path class="st7" d="M192.29,161.81c0,0,22.69-6.65,31.34,19.77c0,0-21.09,12.52-32.55,31.38c-1.56-0.38-4.07-1.47-4.07-1.47
	S202.39,175.53,192.29,161.81z"/>
<path class="st8" d="M181.61,151.23c0,0-29.61,26.4-20.74,54.31C157.47,200.26,146.16,167.64,181.61,151.23z"/>
<path class="st7" d="M366.05,181.7c0,0,31.8-2.02,32.14-19.41c1.16,0.75,18.54,3.2,17.38,28.93c-1.18,4.15-2.4,10.46-10.98,16.32
	c-4,2.13-4,2.13-4,2.13l-3.58,1.21C397.01,210.87,381.78,190.05,366.05,181.7z"/>
<path class="st8" d="M392.24,146.96c0,0-27.04,2.31-40.17,24.7C356.13,161.67,363.3,143.56,392.24,146.96z"/>
<path class="st5" d="M192.29,161.81c0,0,16.33-4.04,10.17-18.69c5.68,0.23,20.86,0.02,35.89,14.27c2.42,2.6,7.35,8.39,9.49,13.53
	c-5.35,2.63-14.11,3.89-24.21,10.66C221.76,176.81,217.62,160.18,192.29,161.81z"/>
<path class="st5" d="M398.19,162.28c0,0,12.63-2.95,9.99-14.94c3.88,1.96,8.35,4.2,13.67,9.35c2.3,2.45,7.34,8.17,9.26,13.26
	c1.92,5.09,2.26,6.25,3.22,10.6c0.63,6.09,0.92,9.05,0.16,12.92c-0.73,3.88-2.47,10.78-4.91,14.69c-2.44,3.92-4.73,7.22-6.8,9.25
	c-4.42,4.02-8.68,8.22-16,10.9c-2.56-6.13-4.4-9.2-5.2-10.71c-2.17-3.49-4.57-6.76-4.57-6.76S430.78,182.99,398.19,162.28z"/>
<path class="st5" d="M395.94,343.2c0,0-12.23,19.16-15.77,19.23c6.33-3.95,15.35-13.85,17.12-17.25c-0.64-2.69-1.28-3.04-1.28-3.04"
	/>
<path class="st5" d="M415.05,296.08c0.33,7.43-2.99,18.24-7.17,30.4c-3.79,11.97-14.78,24.16-19.98,29.35
	c20.32-28.97,18.89-74.04,13.89-107.48c-2.3-15.41-9.15-29.85-19.8-41.22c-19.83-21.16-45.95-37.7-45.95-37.7s3.4,0.87,8.69,2.45
	c25.02,7.43,40.67,23.65,47.74,32.63c0.06,0.03,0.03,0.03,0.03,0.03c2.3,0.91,9.53,13.94,14.11,23.46c0.11,0.23,0.24,0.41,0.4,0.61
	c5.53,6.56,7.87,31.35,8.05,33.34c0.01,0.09,0.01,0.16,0.01,0.25C415.09,264.01,415.25,286.26,415.05,296.08z"/>
<path class="st8" d="M275.92,297.07c0.84,0.86-8.55,3.45-16.72,11.37c-8.17,7.92-11.1,17.56-11.93,16.69
	c-0.84-0.86,0.73-11.9,8.9-19.82C264.34,297.4,275.08,296.21,275.92,297.07z"/>
<path class="st7" d="M294.93,328.78c0,0-21.59-0.97-22.92,14.17c2.18,1.45,12.34,8.85,26.81,7.26c3.68-0.5,12.43-1.69,19.88-7.89
	c3.34-2.88,6.06-4.77,10.33-12.04c0.75-1.48,1.88-3.45,0.32-5.66c-2.38-1.92-2.94-3.77-9.47-0.37
	C311.93,326.97,301.07,329.21,294.93,328.78z"/>
<path class="st8" d="M129.16,291.83c0.2,1.16-8.85-1.92-19.85,0.01s-18.71,8.13-18.91,6.97c-0.2-1.16,7.17-9.26,18.17-11.18
	S128.96,290.67,129.16,291.83z"/>
<path class="st7" d="M143.13,334.27c0,11.47-10.51,20.78-23.47,20.78c-6.06,0-11.61-2.03-15.77-5.4c3.64,2.09,8,3.28,12.66,3.28
	c12.96,0,23.47-9.32,23.47-20.78c0-6.12-2.99-11.61-7.7-15.41C138.83,320.45,143.13,326.9,143.13,334.27z"/>
<path class="st7" d="M90.91,334.03c0,4.27-3.68,7.74-8.21,7.74c-2.12,0-4.06-0.76-5.52-2.01c1.27,0.78,2.8,1.22,4.43,1.22
	c4.53,0,8.21-3.47,8.21-7.74c0-2.28-1.66-4.06-3.31-5.47C88.79,329.15,90.91,331.28,90.91,334.03z"/>
<path class="st7" d="M101.18,311.22c0,4.27-3.68,7.74-8.21,7.74c-2.12,0-4.06-0.76-5.52-2.01c1.27,0.78,2.8,1.22,4.43,1.22
	c4.53,0,8.21-3.47,8.21-7.74c0-2.28-1.66-4.06-3.31-5.47C99.06,306.33,101.18,308.47,101.18,311.22z"/>
<path class="st7" d="M127.77,301.97c-1.18,4.1-6.21,6.71-10.57,5.45c-2.04-0.59-3.7-1.85-4.75-3.46c1.01,1.1,2.35,1.95,3.92,2.4
	c4.36,1.25,8.85-1.06,10.03-5.16c0.63-2.19-0.22-4.55-1.42-6.37C126.69,295.57,128.53,299.33,127.77,301.97z"/>
<path class="st5" d="M414.15,444v71.15c0,0-0.03,0.03-0.12,0.12c-1.52,1.4-16.36,14.9-42.52,26.13v-55.83
	C396.74,465.29,411.55,447.82,414.15,444z"/>
<path class="st5" d="M218.8,506.76"/>
<path class="st5" d="M489.72,339.78c0,11.47-10.51,20.78-23.47,20.78c-6.06,0-11.61-2.03-15.77-5.4c3.64,2.09,8,3.28,12.66,3.28
	c12.96,0,23.47-9.32,23.47-20.78c0-6.12-2.99-11.61-7.7-15.41C485.42,325.95,489.72,332.4,489.72,339.78z"/>
<path class="st7" d="M486.62,337.66c0,11.47-10.51,20.78-23.47,20.78c-6.06,0-11.61-2.03-15.77-5.4c3.64,2.09,8,3.28,12.66,3.28
	c12.96,0,23.47-9.32,23.47-20.78c0-6.12-2.99-11.61-7.7-15.41C482.32,323.83,486.62,330.28,486.62,337.66z"/>
<ellipse transform="matrix(0.8168 -0.5769 0.5769 0.8168 -122.4915 218.7749)" class="st8" cx="283.22" cy="302.25" rx="4.21" ry="0.98"/>
<path class="st8" d="M488.31,292.46c0.2,1.16-9.36-1.83-21.05,0.22s-19.92,8.35-20.13,7.18c-0.2-1.16,7.7-9.36,19.39-11.4
	C478.21,286.41,488.1,291.29,488.31,292.46z"/>
<path class="st7" d="M471.93,305.75c-1.18,4.1-6.21,6.71-10.57,5.45c-2.04-0.59-3.7-1.85-4.75-3.46c1.01,1.1,2.35,1.95,3.92,2.4
	c4.36,1.25,8.85-1.06,10.03-5.16c0.63-2.19-0.22-4.55-1.42-6.37C470.85,299.36,472.69,303.11,471.93,305.75z"/>
<path class="st7" d="M498.71,316.92c-1.18,4.1-6.21,6.71-10.57,5.45c-2.04-0.59-3.7-1.85-4.75-3.46c1.01,1.1,2.35,1.95,3.92,2.4
	c4.36,1.25,8.85-1.06,10.03-5.16c0.63-2.19-0.22-4.55-1.42-6.37C497.63,310.52,499.47,314.28,498.71,316.92z"/>
<path class="st7" d="M509.37,339.97c-1.18,4.1-6.21,6.71-10.57,5.45c-2.04-0.59-3.7-1.85-4.75-3.46c1.01,1.1,2.35,1.95,3.92,2.4
	c4.36,1.25,8.85-1.06,10.03-5.16c0.63-2.19-0.22-4.55-1.42-6.37C508.28,333.57,510.13,337.33,509.37,339.97z"/>
<path class="st5" d="M473.02,304.69c0,4.09-3.87,7.42-8.63,7.42c-2.23,0-4.26-1.05-5.79-2.26c1.34,0.75,2.93,1.5,4.64,1.5
	c4.77,0,8.63-3.33,8.63-7.42c0-2.19-1.1-4.15-2.83-5.5C471.44,299.76,473.02,302.06,473.02,304.69z"/>
<path class="st5" d="M499.77,316.04c0,4.09-3.87,7.42-8.63,7.42c-2.23,0-4.26-1.05-5.79-2.26c1.34,0.75,2.93,1.5,4.64,1.5
	c4.77,0,8.63-3.33,8.63-7.42c0-2.19-1.1-4.15-2.83-5.5C498.19,311.1,499.77,313.4,499.77,316.04z"/>
<path class="st5" d="M510.24,338.32c0,4.09-3.87,7.42-8.63,7.42c-2.23,0-4.26-1.05-5.79-2.26c1.34,0.75,2.93,1.5,4.64,1.5
	c4.77,0,8.63-3.33,8.63-7.42c0-2.19-1.1-4.15-2.83-5.5C508.66,333.38,510.24,335.69,510.24,338.32z"/>
<path class="st9" d="M371.51,485.56v55.83c-9.02,3.85-19.38,7.46-31.02,10.18c-0.93,0.24-1.88,0.45-2.84,0.66
	c-1.16,0.27-2.33,0.51-3.52,0.75c-0.72,0.12-1.43,0.27-2.15,0.39c-0.57,0.12-1.1,0.21-1.67,0.3c-23.98,4.27-52.64,4.66-85.33-3.22
	c-0.24-0.06-0.48-0.12-0.72-0.18c0.03,0,0.03,0,0.06-0.03C298.93,536.29,342.22,509.06,371.51,485.56z"/>
<path class="st6" d="M330.31,553.67c-11.47,2.21-23.29,3.4-35.38,3.4c-17.29,0-34.04-2.33-49.95-6.63
	C277.67,558.33,306.33,557.94,330.31,553.67z"/>
<path class="st6" d="M371.51,443.7v41.86c-29.29,23.5-72.58,50.73-127.19,64.67c-11.11-3.02-21.8-7.05-31.98-11.94V443.7
	c0-19.71,16.12-35.83,35.83-35.83h87.51C355.39,407.87,371.51,424,371.51,443.7z"/>
<path class="st8" d="M304.67,415.06c-11.09,2.17-40.41-3.14-65.11,14.47c-24.71,17.62-20.51,37.9-21.68,48.09
	c-0.37,3.19-10.1-37.82,14.6-55.44C257.19,404.57,307.82,414.45,304.67,415.06z"/>
</svg>
